<svg width="108" height="620" viewBox="0 0 108 620" fill="none" xmlns="http://www.w3.org/2000/svg">
<g filter="url(#filter0_df_1_11)">
<path d="M46.7597 4.48C50.1197 4.15999 53.3597 4.28 56.4797 4.84C60.8797 5.47999 65.0397 7.07999 68.9597 9.63999C69.4397 10.04 69.7997 10.2 70.0397 10.12C70.4397 9.71999 71.4797 8.79999 73.1597 7.35999C75.2397 5.6 76.3197 4.68 76.3997 4.59999C76.6397 4.44 77.1997 4.36 78.0797 4.36C79.0397 4.36 79.6397 4.44 79.8797 4.59999C80.2797 4.84 80.5197 5.4 80.5997 6.27999C80.6797 7.39999 80.7197 11.56 80.7197 18.76C80.7197 27.72 80.4397 32.4 79.8797 32.8C79.5597 32.96 78.3997 33.04 76.3997 33.04C74.3997 33.04 73.2397 32.96 72.9197 32.8C72.4397 32.56 72.1197 31.72 71.9597 30.28C71.4797 27.72 70.7197 25.36 69.6797 23.2C68.7197 21.2 67.3997 19.44 65.7197 17.92C62.2797 14.56 57.4797 12.76 51.3197 12.52C44.7597 12.28 40.5997 14.44 38.8397 19C38.4397 20.12 38.2397 21.4 38.2397 22.84C38.2397 24.44 38.5197 25.84 39.0797 27.04C40.2797 29.52 42.4397 31.36 45.5597 32.56C46.1197 32.88 49.1997 33.6 54.7997 34.72C60.5597 35.92 63.7597 36.64 64.3997 36.88C67.9197 37.76 71.0797 39.24 73.8797 41.32C79.6397 45.56 83.1197 51.36 84.3197 58.72C84.6397 60.96 84.6397 63.76 84.3197 67.12C83.8397 70.16 82.9197 73.08 81.5597 75.88C79.9597 79.16 77.8397 81.8 75.1997 83.8C71.5197 86.6 67.0797 88.36 61.8797 89.08C59.8797 89.4 56.7997 89.44 52.6397 89.2C52.2397 89.12 51.9197 89.08 51.6797 89.08C44.7997 88.36 39.2797 86.64 35.1197 83.92C34.6397 83.6 34.2797 83.48 34.0397 83.56C33.6397 83.96 32.5997 84.88 30.9197 86.32C28.8397 88.08 27.7597 89 27.6797 89.08C27.4397 89.24 26.8797 89.32 25.9997 89.32C25.0397 89.32 24.4397 89.24 24.1997 89.08C23.7997 88.84 23.5597 88.28 23.4797 87.4C23.3997 86.28 23.3597 82.16 23.3597 75.04C23.3597 66.32 23.4397 61.84 23.5997 61.6C23.6797 61.44 23.8397 61.24 24.0797 61C24.4797 60.76 25.6397 60.64 27.5597 60.64C29.6397 60.64 30.8397 60.72 31.1597 60.88C31.7197 61.2 31.9997 62.04 31.9997 63.4C32.2397 67.72 33.7597 71.28 36.5597 74.08C38.6397 76.16 41.5197 77.8 45.1997 79C49.9197 80.52 54.6397 81.04 59.3597 80.56C59.9997 80.48 60.5597 80.4 61.0397 80.32C63.2797 79.84 65.1197 78.88 66.5597 77.44C68.1597 75.84 69.1997 73.68 69.6797 70.96C70.3197 66.88 69.1997 63.4 66.3197 60.52C65.1197 59.16 63.5597 58.2 61.6397 57.64C61.3197 57.48 58.1197 56.72 52.0397 55.36C46.2797 54.24 42.9997 53.52 42.1997 53.2C36.2797 51.52 31.6397 48.36 28.2797 43.72C24.8397 39.16 23.1997 34.04 23.3597 28.36C23.5997 22.68 25.2797 17.8 28.3997 13.72C31.3597 9.72 35.6797 6.96 41.3597 5.44C43.2797 4.96 45.0797 4.64 46.7597 4.48ZM49.9045 135.48C52.5445 135.32 55.8645 135.36 59.8645 135.6C70.7445 136.8 79.5045 140.68 86.1445 147.24C92.6245 153.72 96.5045 162.24 97.7845 172.8C98.1045 176 98.1045 179.48 97.7845 183.24C97.7845 183.4 97.7845 183.56 97.7845 183.72C96.5845 193.72 92.9045 201.88 86.7445 208.2C83.7845 211.08 80.4245 213.48 76.6645 215.4C71.7045 217.8 66.1045 219.36 59.8645 220.08C56.5045 220.4 52.7445 220.4 48.5845 220.08C48.3445 220.08 48.1445 220.08 47.9845 220.08C36.6245 218.72 27.7045 214.76 21.2245 208.2C14.9845 201.96 11.2645 193.8 10.0645 183.72C9.74453 180.68 9.74453 177.24 10.0645 173.4C10.0645 173.16 10.0645 172.96 10.0645 172.8C10.7045 168 11.7045 163.92 13.0645 160.56C16.6645 151.36 22.7045 144.68 31.1845 140.52C36.6245 137.72 42.8645 136.04 49.9045 135.48ZM56.3845 143.28C49.6645 142.56 43.9445 144.36 39.2245 148.68C38.1045 149.72 37.1045 150.88 36.2245 152.16C34.0645 155.44 32.5845 159.52 31.7845 164.4C30.9845 170.24 30.8645 177.2 31.4245 185.28C31.5045 186 31.5845 186.68 31.6645 187.32C32.5445 196.52 35.4245 203.2 40.3045 207.36C45.5845 211.76 51.5845 213.24 58.3045 211.8C61.7445 211.08 64.8245 209.6 67.5445 207.36C72.4245 203.2 75.3045 196.52 76.1845 187.32C76.9845 180.6 77.0245 173.48 76.3045 165.96C76.2245 165.4 76.1445 164.88 76.0645 164.4C75.5045 160.96 74.5445 157.76 73.1845 154.8C69.8245 148 64.2245 144.16 56.3845 143.28ZM5.59406 272V267.68H7.15406C7.07406 267.68 10.9141 267.76 18.6741 267.92C25.3141 268 31.9541 268 38.5941 267.92L49.9941 267.68H51.5541V272V276.32H45.0741H38.5941V302.24C38.6741 320.16 38.8341 329.68 39.0741 330.8C39.0741 330.96 39.1541 331.28 39.3141 331.76C39.9541 334.8 41.2741 337.16 43.2741 338.84C46.5541 341.48 51.4741 342.76 58.0341 342.68C65.6341 342.44 71.2741 340.48 74.9541 336.8C77.2741 334.4 78.8741 331 79.7541 326.6C79.8341 325.88 79.9141 317.28 79.9941 300.8V276.32H73.5141H67.0341V272V267.68H68.2341L76.9941 267.92C82.1141 268 87.2341 268 92.3541 267.92C98.2741 267.76 101.194 267.68 101.114 267.68H102.314V272V276.32H95.8341H89.3541V300.2C89.3541 316.44 89.3141 324.88 89.2341 325.52C88.7541 331.04 86.8741 335.88 83.5941 340.04C79.9941 344.68 75.0341 347.88 68.7141 349.64C65.1941 350.68 61.5541 351.24 57.7941 351.32C49.9541 351.48 43.1541 350.4 37.3941 348.08C35.4741 347.36 33.4741 346.36 31.3941 345.08C28.5141 343.32 26.0741 341.16 24.0741 338.6C20.9541 334.52 19.1541 330.04 18.6741 325.16C18.5941 324.6 18.5541 316.24 18.5541 300.08V276.32H12.0741H5.59406V272ZM13.4517 400.72V400H53.8917H94.4517V400.72L95.7717 415.96C96.4917 425.96 96.8917 431.04 96.9717 431.2V431.92H92.6517C89.7717 431.92 88.3317 431.88 88.3317 431.8C88.3317 430.2 88.1317 428.12 87.7317 425.56C87.2517 421.96 86.5717 419 85.6917 416.68C84.4917 413.88 82.4517 411.8 79.5717 410.44C78.3717 409.8 76.7717 409.32 74.7717 409C74.0517 408.84 72.0117 408.72 68.6517 408.64H63.9717V440.44V472.36H73.2117H82.3317V476.68V481H80.4117L66.2517 480.76C58.0117 480.68 49.8117 480.68 41.6517 480.76L27.4917 481H25.5717V476.68V472.36H34.8117H43.9317V440.44V408.64H39.2517C35.8917 408.72 33.8517 408.84 33.1317 409C29.3717 409.72 26.4917 411.12 24.4917 413.2C23.2117 414.48 22.1717 416.4 21.3717 418.96C20.7317 421.28 20.2117 424.84 19.8117 429.64C19.6517 431 19.5717 431.72 19.5717 431.8C19.5717 431.88 18.1317 431.92 15.2517 431.92H10.9317V431.2L12.2517 415.96C12.9717 405.96 13.3717 400.88 13.4517 400.72ZM4.65656 534V529.68H6.21656C6.13656 529.68 9.97656 529.76 17.7366 529.92C24.3766 530 31.0166 530 37.6566 529.92L49.0566 529.68H50.6166V534V538.32H44.1366H37.6566V551.52V564.84H53.9766H70.1766V551.52V538.32H63.6966H57.2166V534V529.68H58.7766L70.1766 529.92C76.8166 530 83.4566 530 90.0966 529.92C97.8566 529.76 101.697 529.68 101.617 529.68H103.177V534V538.32H96.6966H90.2166V570.84V603.36H96.6966H103.177V607.68V612H101.617L90.2166 611.76C83.5766 611.68 76.9366 611.68 70.2966 611.76C62.5366 611.92 58.6966 612 58.7766 612H57.2166V607.68V603.36H63.6966H70.1766V588.36V573.48H53.9766H37.6566V588.36V603.36H44.1366H50.6166V607.68V612H49.0566C49.1366 612 45.2966 611.92 37.5366 611.76C30.8966 611.68 24.2566 611.68 17.6166 611.76L6.21656 612H4.65656V607.68V603.36H11.1366H17.6166V570.84V538.32H11.1366H4.65656V534Z" fill="black"/>
</g>
<defs>
<filter id="filter0_df_1_11" x="0.656555" y="0" width="106.52" height="620" filterUnits="userSpaceOnUse" color-interpolation-filters="sRGB">
<feFlood flood-opacity="0" result="BackgroundImageFix"/>
<feColorMatrix in="SourceAlpha" type="matrix" values="0 0 0 0 0 0 0 0 0 0 0 0 0 0 0 0 0 0 127 0" result="hardAlpha"/>
<feOffset dy="4"/>
<feGaussianBlur stdDeviation="2"/>
<feComposite in2="hardAlpha" operator="out"/>
<feColorMatrix type="matrix" values="0 0 0 0 0 0 0 0 0 0 0 0 0 0 0 0 0 0 0.25 0"/>
<feBlend mode="normal" in2="BackgroundImageFix" result="effect1_dropShadow_1_11"/>
<feBlend mode="normal" in="SourceGraphic" in2="effect1_dropShadow_1_11" result="shape"/>
<feGaussianBlur stdDeviation="2" result="effect2_foregroundBlur_1_11"/>
</filter>
</defs>
</svg>
